<svg fill="none" height="522" viewBox="0 0 605 522" width="605" xmlns="http://www.w3.org/2000/svg" xmlns:xlink="http://www.w3.org/1999/xlink"><filter id="a" color-interpolation-filters="sRGB" filterUnits="userSpaceOnUse" height="810.367" width="810.367" x="130.291" y="-288.657"><feFlood flood-opacity="0" result="BackgroundImageFix"/><feBlend in="SourceGraphic" in2="BackgroundImageFix" mode="normal" result="shape"/><feGaussianBlur result="effect1_foregroundBlur_0_1" stdDeviation="84.8547"/></filter><filter id="b" color-interpolation-filters="sRGB" filterUnits="userSpaceOnUse" height="593.02" width="694.394" x="266.081" y="-248.178"><feFlood flood-opacity="0" result="BackgroundImageFix"/><feBlend in="SourceGraphic" in2="BackgroundImageFix" mode="normal" result="shape"/><feGaussianBlur result="effect1_foregroundBlur_0_1" stdDeviation="25.0892"/></filter><radialGradient id="c" cx="0" cy="0" gradientTransform="matrix(0 180.631 -180.631 0 302.384 198.477)" gradientUnits="userSpaceOnUse" r="1"><stop offset="0" stop-color="#7e87ff"/><stop offset="1" stop-opacity="0"/></radialGradient><clipPath id="d"><path d="m-11 0h626.768v400h-626.768z"/></clipPath><g clip-path="url(#d)"><path d="m2.2753 10.4463-.00001 376.0607m52.23071-376.0607v376.0607m52.231-376.0607v376.0607m509.031-375.8431h-626.768m169.967-.2176v376.0607m456.801-334.0585h-626.768m222.198-42.0022v376.0607m404.57-292.2739h-626.768m274.429-83.7868v376.0607m352.339-250.489h-626.768m326.659-125.5717v376.0607m300.109-208.705h-626.768m378.89-167.3557v376.0607m247.878-166.92h-626.768m431.121-209.1407v376.0607m195.647-125.135h-626.768m561.698-250.9257v376.0607m65.07-20.674h-626.768m483.351-355.3867v376.0607m143.417-83.351h-626.768m613.928-292.7097v376.0607m-574.5374-376.0607v376.0607m52.2307-376.0607v376.0607m52.2307-376.0607v376.0607m482.916-354.9508h-626.768m196.083-21.1099v376.0607m430.685-313.1662h-626.768m248.313-62.8945v376.0607m378.455-271.382h-626.768m300.544-104.6787v376.0607m326.224-229.597h-626.768m352.775-146.4637v376.0607m273.993-187.812h-626.768m405.005-188.2487v376.0607m221.763-146.028h-626.768m535.582-230.0327v376.0607m91.186-41.566h-626.768m457.236-334.4947v376.0607m169.532-104.243h-626.768m587.813-271.8177v376.0607m38.955.218h-626.768m509.467-376.2787v376.0607m117.301-62.459h-626.768" stroke="url(#c)" stroke-width=".435256"/></g><g filter="url(#a)"><circle cx="535.474" cy="116.526" fill="#000080" r="235.474"/></g><g filter="url(#b)"><path d="m316.259 190.8h645.871v130.071h-645.871z" fill="#4169e1" fill-opacity=".24" transform="matrix(.79851365 -.6019767 .6019767 .79851365 -51.135283 228.824145)"/></g></svg>