<svg fill="none" height="1071" viewBox="0 0 1440 1071" width="1440" xmlns="http://www.w3.org/2000/svg" xmlns:xlink="http://www.w3.org/1999/xlink"><filter id="a" color-interpolation-filters="sRGB" filterUnits="userSpaceOnUse" height="544.624" width="599.395" x="94.9942" y="92.4721"><feFlood flood-opacity="0" result="BackgroundImageFix"/><feBlend in="SourceGraphic" in2="BackgroundImageFix" mode="normal" result="shape"/><feGaussianBlur result="effect1_foregroundBlur_1_1503" stdDeviation="28"/></filter><filter id="b" color-interpolation-filters="sRGB" filterUnits="userSpaceOnUse" height="518.488" width="585.655" x="772.52" y="552.348"><feFlood flood-opacity="0" result="BackgroundImageFix"/><feBlend in="SourceGraphic" in2="BackgroundImageFix" mode="normal" result="shape"/><feGaussianBlur result="effect1_foregroundBlur_1_1503" stdDeviation="28"/></filter><filter id="c" color-interpolation-filters="sRGB" filterUnits="userSpaceOnUse" height="564.751" width="673.155" x="803.823" y="1.61057"><feFlood flood-opacity="0" result="BackgroundImageFix"/><feBlend in="SourceGraphic" in2="BackgroundImageFix" mode="normal" result="shape"/><feGaussianBlur result="effect1_foregroundBlur_1_1503" stdDeviation="60"/></filter><mask id="d" height="1551" maskUnits="userSpaceOnUse" width="2193" x="-231" y="-263"><g fill="none" opacity=".12"><path d="m-11.2386-40.9313h109.592v109.592h-109.592z" stroke="#fff" stroke-width="1.1536"/><path d="m98.3538-40.9313h109.592v109.592h-109.592z" stroke="#fff" stroke-width="1.1536"/><path d="m207.946-40.9313h109.592v109.592h-109.592z" stroke="#fff" stroke-width="1.1536"/><path d="m317.538-40.9313h109.592v109.592h-109.592z" stroke="#fff" stroke-width="1.1536"/><path d="m427.131-40.9313h109.592v109.592h-109.592z" stroke="#fff" stroke-width="1.1536"/><path d="m536.723-40.9313h109.592v109.592h-109.592z" stroke="#fff" stroke-width="1.1536"/><path d="m646.315-40.9313h109.592v109.592h-109.592z" stroke="#fff" stroke-width="1.1536"/><path d="m755.908-40.9313h109.592v109.592h-109.592z" stroke="#fff" stroke-width="1.1536"/><path d="m865.5-40.9313h109.592v109.592h-109.592z" stroke="#fff" stroke-width="1.1536"/><path d="m975.092-40.9313h109.592v109.592h-109.592z" stroke="#fff" stroke-width="1.1536"/><path d="m1084.68-40.9313h109.592v109.592h-109.592z" stroke="#fff" stroke-width="1.1536"/><path d="m1194.28-40.9313h109.592v109.592h-109.592z" stroke="#fff" stroke-width="1.1536"/><path d="m1303.87-40.9313h109.592v109.592h-109.592z" stroke="#fff" stroke-width="1.1536"/><path d="m1413.46-40.9313h109.592v109.592h-109.592z" stroke="#fff" stroke-width="1.1536"/><path d="m-11.2386 69.8146h109.592v109.592h-109.592z" stroke="#fff" stroke-width="1.1536"/><path d="m98.3538 69.8146h109.592v109.592h-109.592z" stroke="#fff" stroke-width="1.1536"/><path d="m207.946 69.8146h109.592v109.592h-109.592z" stroke="#fff" stroke-width="1.1536"/><path d="m317.538 69.8146h109.592v109.592h-109.592z" stroke="#fff" stroke-width="1.1536"/><path d="m427.131 69.8146h109.592v109.592h-109.592z" stroke="#fff" stroke-width="1.1536"/><path d="m536.723 69.8146h109.592v109.592h-109.592z" stroke="#fff" stroke-width="1.1536"/><path d="m646.315 69.8146h109.592v109.592h-109.592z" stroke="#fff" stroke-width="1.1536"/><path d="m755.908 69.8146h109.592v109.592h-109.592z" stroke="#fff" stroke-width="1.1536"/><path d="m865.5 69.8146h109.592v109.592h-109.592z" stroke="#fff" stroke-width="1.1536"/><path d="m975.092 69.8146h109.592v109.592h-109.592z" stroke="#fff" stroke-width="1.1536"/><path d="m1084.68 69.8146h109.592v109.592h-109.592z" stroke="#fff" stroke-width="1.1536"/><path d="m1194.28 69.8146h109.592v109.592h-109.592z" stroke="#fff" stroke-width="1.1536"/><path d="m1303.87 69.8146h109.592v109.592h-109.592z" stroke="#fff" stroke-width="1.1536"/><path d="m1413.46 69.8146h109.592v109.592h-109.592z" stroke="#fff" stroke-width="1.1536"/><path d="m-11.2386 180.561h109.592v109.592h-109.592z" stroke="#fff" stroke-width="1.1536"/><path d="m98.3538 180.561h109.592v109.592h-109.592z" stroke="#fff" stroke-width="1.1536"/><path d="m207.946 180.561h109.592v109.592h-109.592z" stroke="#fff" stroke-width="1.1536"/><path d="m316.962 179.984h110.746v110.746h-110.746z" fill="#fff" fill-opacity=".13"/><path d="m427.131 180.561h109.592v109.592h-109.592z" stroke="#fff" stroke-width="1.1536"/><path d="m536.723 180.561h109.592v109.592h-109.592z" stroke="#fff" stroke-width="1.1536"/><path d="m646.315 180.561h109.592v109.592h-109.592z" stroke="#fff" stroke-width="1.1536"/><path d="m755.908 180.561h109.592v109.592h-109.592z" stroke="#fff" stroke-width="1.1536"/><path d="m865.5 180.561h109.592v109.592h-109.592z" stroke="#fff" stroke-width="1.1536"/><path d="m975.092 180.561h109.592v109.592h-109.592z" stroke="#fff" stroke-width="1.1536"/><path d="m1084.11 179.984h110.746v110.746h-110.746z" fill="#fff" fill-opacity=".13"/><path d="m1194.28 180.561h109.592v109.592h-109.592z" stroke="#fff" stroke-width="1.1536"/><path d="m1303.29 179.984h110.746v110.746h-110.746z" fill="#fff" fill-opacity=".13"/><path d="m1413.46 180.561h109.592v109.592h-109.592z" stroke="#fff" stroke-width="1.1536"/><path d="m-11.2386 291.306h109.592v109.592h-109.592z" stroke="#fff" stroke-width="1.1536"/><path d="m98.3538 291.306h109.592v109.592h-109.592z" stroke="#fff" stroke-width="1.1536"/><path d="m207.369 290.73h110.746v110.746h-110.746z" fill="#fff" fill-opacity=".13"/><path d="m317.538 291.306h109.592v109.592h-109.592z" stroke="#fff" stroke-width="1.1536"/><path d="m426.554 290.73h110.746v110.746h-110.746z" fill="#fff" fill-opacity=".13"/><path d="m536.723 291.306h109.592v109.592h-109.592z" stroke="#fff" stroke-width="1.1536"/><path d="m646.315 291.306h109.592v109.592h-109.592z" stroke="#fff" stroke-width="1.1536"/><path d="m755.908 291.306h109.592v109.592h-109.592z" stroke="#fff" stroke-width="1.1536"/><path d="m865.5 291.306h109.592v109.592h-109.592z" stroke="#fff" stroke-width="1.1536"/><path d="m974.516 290.73h110.746v110.746h-110.746z" fill="#fff" fill-opacity=".13"/><path d="m1084.68 291.306h109.592v109.592h-109.592z" stroke="#fff" stroke-width="1.1536"/><path d="m1193.7 290.73h110.746v110.746h-110.746z" fill="#fff" fill-opacity=".13"/><path d="m1303.87 291.306h109.592v109.592h-109.592z" stroke="#fff" stroke-width="1.1536"/><path d="m1413.46 291.306h109.592v109.592h-109.592z" stroke="#fff" stroke-width="1.1536"/><path d="m-11.2386 402.052h109.592v109.592h-109.592z" stroke="#fff" stroke-width="1.1536"/><path d="m97.777 401.476h110.746v110.746h-110.746z" fill="#fff" fill-opacity=".13"/><path d="m207.946 402.052h109.592v109.592h-109.592z" stroke="#fff" stroke-width="1.1536"/><path d="m316.962 401.476h110.746v110.746h-110.746z" fill="#fff" fill-opacity=".13"/><path d="m427.131 402.052h109.592v109.592h-109.592z" stroke="#fff" stroke-width="1.1536"/><path d="m536.723 402.052h109.592v109.592h-109.592z" stroke="#fff" stroke-width="1.1536"/><path d="m646.315 402.052h109.592v109.592h-109.592z" stroke="#fff" stroke-width="1.1536"/><path d="m755.908 402.052h109.592v109.592h-109.592z" stroke="#fff" stroke-width="1.1536"/><path d="m865.5 402.052h109.592v109.592h-109.592z" stroke="#fff" stroke-width="1.1536"/><path d="m975.092 402.052h109.592v109.592h-109.592z" stroke="#fff" stroke-width="1.1536"/><path d="m1084.11 401.476h110.746v110.746h-110.746z" fill="#fff" fill-opacity=".13"/><path d="m1194.28 402.052h109.592v109.592h-109.592z" stroke="#fff" stroke-width="1.1536"/><path d="m1303.87 402.052h109.592v109.592h-109.592z" stroke="#fff" stroke-width="1.1536"/><path d="m1413.46 402.052h109.592v109.592h-109.592z" stroke="#fff" stroke-width="1.1536"/><path d="m-11.2386 512.798h109.592v109.592h-109.592z" stroke="#fff" stroke-width="1.1536"/><path d="m98.3538 512.798h109.592v109.592h-109.592z" stroke="#fff" stroke-width="1.1536"/><path d="m207.946 512.798h109.592v109.592h-109.592z" stroke="#fff" stroke-width="1.1536"/><path d="m317.538 512.798h109.592v109.592h-109.592z" stroke="#fff" stroke-width="1.1536"/><path d="m427.131 512.798h109.592v109.592h-109.592z" stroke="#fff" stroke-width="1.1536"/><path d="m536.723 512.798h109.592v109.592h-109.592z" stroke="#fff" stroke-width="1.1536"/><path d="m646.315 512.798h109.592v109.592h-109.592z" stroke="#fff" stroke-width="1.1536"/><path d="m755.908 512.798h109.592v109.592h-109.592z" stroke="#fff" stroke-width="1.1536"/><path d="m865.5 512.798h109.592v109.592h-109.592z" stroke="#fff" stroke-width="1.1536"/><path d="m975.092 512.798h109.592v109.592h-109.592z" stroke="#fff" stroke-width="1.1536"/><path d="m1084.68 512.798h109.592v109.592h-109.592z" stroke="#fff" stroke-width="1.1536"/><path d="m1194.28 512.798h109.592v109.592h-109.592z" stroke="#fff" stroke-width="1.1536"/><path d="m1303.87 512.798h109.592v109.592h-109.592z" stroke="#fff" stroke-width="1.1536"/><path d="m1413.46 512.798h109.592v109.592h-109.592z" stroke="#fff" stroke-width="1.1536"/><path d="m-11.2386 623.544h109.592v109.592h-109.592z" stroke="#fff" stroke-width="1.1536"/><path d="m98.3538 623.544h109.592v109.592h-109.592z" stroke="#fff" stroke-width="1.1536"/><path d="m207.946 623.544h109.592v109.592h-109.592z" stroke="#fff" stroke-width="1.1536"/><path d="m317.538 623.544h109.592v109.592h-109.592z" stroke="#fff" stroke-width="1.1536"/><path d="m427.131 623.544h109.592v109.592h-109.592z" stroke="#fff" stroke-width="1.1536"/><path d="m536.723 623.544h109.592v109.592h-109.592z" stroke="#fff" stroke-width="1.1536"/><path d="m646.315 623.544h109.592v109.592h-109.592z" stroke="#fff" stroke-width="1.1536"/><path d="m755.908 623.544h109.592v109.592h-109.592z" stroke="#fff" stroke-width="1.1536"/><path d="m865.5 623.544h109.592v109.592h-109.592z" stroke="#fff" stroke-width="1.1536"/><path d="m974.516 622.967h110.746v110.746h-110.746z" fill="#fff" fill-opacity=".13"/><path d="m1084.68 623.544h109.592v109.592h-109.592z" stroke="#fff" stroke-width="1.1536"/><path d="m1194.28 623.544h109.592v109.592h-109.592z" stroke="#fff" stroke-width="1.1536"/><path d="m1303.87 623.544h109.592v109.592h-109.592z" stroke="#fff" stroke-width="1.1536"/><path d="m1413.46 623.544h109.592v109.592h-109.592z" stroke="#fff" stroke-width="1.1536"/><path d="m-11.2386 734.29h109.592v109.592h-109.592z" stroke="#fff" stroke-width="1.1536"/><path d="m98.3538 734.29h109.592v109.592h-109.592z" stroke="#fff" stroke-width="1.1536"/><path d="m207.946 734.29h109.592v109.592h-109.592z" stroke="#fff" stroke-width="1.1536"/><path d="m317.538 734.29h109.592v109.592h-109.592z" stroke="#fff" stroke-width="1.1536"/><path d="m427.131 734.29h109.592v109.592h-109.592z" stroke="#fff" stroke-width="1.1536"/><path d="m536.723 734.29h109.592v109.592h-109.592z" stroke="#fff" stroke-width="1.1536"/><path d="m646.315 734.29h109.592v109.592h-109.592z" stroke="#fff" stroke-width="1.1536"/><path d="m755.908 734.29h109.592v109.592h-109.592z" stroke="#fff" stroke-width="1.1536"/><path d="m864.923 733.713h110.746v110.746h-110.746z" fill="#fff" fill-opacity=".13"/><path d="m975.092 734.29h109.592v109.592h-109.592z" stroke="#fff" stroke-width="1.1536"/><path d="m1084.11 733.713h110.746v110.746h-110.746z" fill="#fff" fill-opacity=".13"/><path d="m1194.28 734.29h109.592v109.592h-109.592z" stroke="#fff" stroke-width="1.1536"/><path d="m1303.29 733.713h110.746v110.746h-110.746z" fill="#fff" fill-opacity=".13"/><path d="m1413.46 734.29h109.592v109.592h-109.592z" stroke="#fff" stroke-width="1.1536"/><path d="m-11.2386 845.036h109.592v109.592h-109.592z" stroke="#fff" stroke-width="1.1536"/><path d="m98.3538 845.036h109.592v109.592h-109.592z" stroke="#fff" stroke-width="1.1536"/><path d="m207.946 845.036h109.592v109.592h-109.592z" stroke="#fff" stroke-width="1.1536"/><path d="m317.538 845.036h109.592v109.592h-109.592z" stroke="#fff" stroke-width="1.1536"/><path d="m427.131 845.036h109.592v109.592h-109.592z" stroke="#fff" stroke-width="1.1536"/><path d="m536.723 845.036h109.592v109.592h-109.592z" stroke="#fff" stroke-width="1.1536"/><path d="m646.315 845.036h109.592v109.592h-109.592z" stroke="#fff" stroke-width="1.1536"/><path d="m755.331 844.459h110.746v110.746h-110.746z" fill="#fff" fill-opacity=".13"/><path d="m865.5 845.036h109.592v109.592h-109.592z" stroke="#fff" stroke-width="1.1536"/><path d="m974.516 844.459h110.746v110.746h-110.746z" fill="#fff" fill-opacity=".13"/><path d="m1084.68 845.036h109.592v109.592h-109.592z" stroke="#fff" stroke-width="1.1536"/><path d="m1193.7 844.459h110.746v110.746h-110.746z" fill="#fff" fill-opacity=".13"/><path d="m1303.87 845.036h109.592v109.592h-109.592z" stroke="#fff" stroke-width="1.1536"/><path d="m1413.46 845.036h109.592v109.592h-109.592z" stroke="#fff" stroke-width="1.1536"/><path d="m-11.2386 955.782h109.592v109.592h-109.592z" stroke="#fff" stroke-width="1.1536"/><path d="m98.3538 955.782h109.592v109.592h-109.592z" stroke="#fff" stroke-width="1.1536"/><path d="m207.946 955.782h109.592v109.592h-109.592z" stroke="#fff" stroke-width="1.1536"/><path d="m317.538 955.782h109.592v109.592h-109.592z" stroke="#fff" stroke-width="1.1536"/><path d="m427.131 955.782h109.592v109.592h-109.592z" stroke="#fff" stroke-width="1.1536"/><path d="m536.723 955.782h109.592v109.592h-109.592z" stroke="#fff" stroke-width="1.1536"/><path d="m646.315 955.782h109.592v109.592h-109.592z" stroke="#fff" stroke-width="1.1536"/><path d="m755.908 955.782h109.592v109.592h-109.592z" stroke="#fff" stroke-width="1.1536"/><path d="m864.923 955.205h110.746v110.746h-110.746z" fill="#fff" fill-opacity=".13"/><path d="m975.092 955.782h109.592v109.592h-109.592z" stroke="#fff" stroke-width="1.1536"/><path d="m1084.11 955.205h110.746v110.746h-110.746z" fill="#fff" fill-opacity=".13"/><path d="m1194.28 955.782h109.592v109.592h-109.592z" stroke="#fff" stroke-width="1.1536"/><path d="m1303.87 955.782h109.592v109.592h-109.592z" stroke="#fff" stroke-width="1.1536"/><path d="m1413.46 955.782h109.592v109.592h-109.592z" stroke="#fff" stroke-width="1.1536"/><path d="m-11.2386 1066.53h109.592v109.592h-109.592z" stroke="#fff" stroke-width="1.1536"/><path d="m98.3538 1066.53h109.592v109.592h-109.592z" stroke="#fff" stroke-width="1.1536"/><path d="m207.946 1066.53h109.592v109.592h-109.592z" stroke="#fff" stroke-width="1.1536"/><path d="m317.538 1066.53h109.592v109.592h-109.592z" stroke="#fff" stroke-width="1.1536"/><path d="m427.131 1066.53h109.592v109.592h-109.592z" stroke="#fff" stroke-width="1.1536"/><path d="m536.723 1066.53h109.592v109.592h-109.592z" stroke="#fff" stroke-width="1.1536"/><path d="m646.315 1066.53h109.592v109.592h-109.592z" stroke="#fff" stroke-width="1.1536"/><path d="m755.908 1066.53h109.592v109.592h-109.592z" stroke="#fff" stroke-width="1.1536"/><path d="m865.5 1066.53h109.592v109.592h-109.592z" stroke="#fff" stroke-width="1.1536"/><path d="m975.092 1066.53h109.592v109.592h-109.592z" stroke="#fff" stroke-width="1.1536"/><path d="m1084.68 1066.53h109.592v109.592h-109.592z" stroke="#fff" stroke-width="1.1536"/><path d="m1194.28 1066.53h109.592v109.592h-109.592z" stroke="#fff" stroke-width="1.1536"/><path d="m1303.87 1066.53h109.592v109.592h-109.592z" stroke="#fff" stroke-width="1.1536"/><path d="m1413.46 1066.53h109.592v109.592h-109.592z" stroke="#fff" stroke-width="1.1536"/></g></mask><g mask="url(#d)"><g filter="url(#a)"><ellipse cx="394.692" cy="364.784" fill="#d9d9d9" rx="264.661" ry="190.017" transform="matrix(.82776667 .56107249 -.56107249 .82776667 272.649384 -158.62286)"/></g><g filter="url(#b)"><ellipse cx="1065.35" cy="811.591" fill="#d9d9d9" rx="252.123" ry="183.841" transform="matrix(.86475552 .50219309 -.50219309 .86475552 551.658103 -425.248201)"/></g><g filter="url(#c)"><ellipse cx="1140.4" cy="283.986" fill="#d9d9d9" rx="220.175" ry="157.363" transform="matrix(.96592583 -.25881905 .25881905 .96592583 -34.642798 304.833827)"/></g></g></svg>