<svg fill="none" height="51" viewBox="0 0 185 51" width="185" xmlns="http://www.w3.org/2000/svg"><path d="m25.3911 44.6042c-8.5223-1.9796-31.50544-10.9716-23.85559-21.4399 14.94319 12.8732 34.20979 19.6049 53.91839 18.839l8.1867-.3182v1.5099c-1.6105 4.8315-12.8035 7.6901-38.2495 1.4092z" fill="#4169e1"/><path d="m63.4397 39.37 2.1138-5.2342-2.1138-.5032c-.7987-.599-1.5471-1.2937-2.3606-1.8725-3.4263-2.4384-13.6641-8.2597-22.4009-10.5082-11.7895-3.0342-32.53792-6.4415-37.29814.644-1.648036 2.4531-.27988 5.7066 1.9072 7.6941 10.58334 9.6176 42.29094 20.6001 60.15244 11.8938l-5.3348-3.8249c-7.2473 4.1269-23.9563 2.8181-39.4573-4.9323-5.6368-2.8183-14.29328-11.2734 1.9124-12.0787 10.6696-1.1072 29.4924 4.6302 37.5449 12.0787h-2.2145z" fill="#000080"/><path d="m34.2893 19.2446 8.481 8.4301c1.3908 1.3909 2.5782 2.3408 3.562 2.8496.9838.4976 1.9675.7803 2.9513.8481v.6276h-10.9404v-.6276c.6559 0 1.1251-.1074 1.4078-.3223.2941-.2261.4411-.4749.4411-.7463s-.0566-.5145-.1697-.7294c-.1017-.2148-.4523-.6162-1.0516-1.2042l-7.9382-7.8534v7.4123c0 1.1648.0735 1.9337.2205 2.3069.1131.2827.3506.5258.7124.7293.4863.2714 1.0008.4071 1.5436.4071h.7802v.6276h-9.804v-.6276h.8142c.9499 0 1.6397-.277 2.0694-.8311.2713-.3619.407-1.2326.407-2.6122v-14.8586c0-1.1647-.0735-1.9393-.2205-2.3238-.113-.2714-.3449-.5088-.6954-.7124-.4975-.27135-1.0177-.40705-1.5605-.40705h-.8142v-.62759h9.804v.62759h-.7802c-.5315 0-1.046.13004-1.5436.39015-.3505.1809-.5936.4523-.7293.8141-.1357.3619-.2036 1.1082-.2036 2.239v7.0392c.2262-.2148 1.0008-.9329 2.3238-2.1542 3.3585-3.0757 5.3882-5.1281 6.0893-6.1571.3053-.4523.458-.8481.458-1.1874 0-.26-.1187-.4862-.3562-.67843-.2375-.20355-.6389-.30532-1.2043-.30532h-.5258v-.62759h8.447v.62759c-.4975.01131-.9499.07916-1.3569.20354-.4071.12439-.9047.36751-1.4927.72941-.588.3505-1.3117.9216-2.1711 1.7131-.2488.2262-1.3965 1.3852-3.4433 3.4772zm18.4206 3.0702c-.0113 2.3068.5485 4.116 1.6793 5.4278 1.1308 1.3117 2.4594 1.9675 3.986 1.9675 1.0177 0 1.8997-.277 2.6461-.8311.7576-.5654 1.3908-1.5266 1.8997-2.8835l.5258.3392c-.2374 1.5492-.9272 2.9627-2.0693 4.2405-1.1421 1.2665-2.5726 1.8997-4.2914 1.8997-1.8658 0-3.4659-.7237-4.8002-2.1711-1.323-1.4587-1.9846-3.415-1.9846-5.8688 0-2.6574.6785-4.7267 2.0355-6.2081 1.3682-1.4926 3.0814-2.2389 5.1394-2.2389 1.7415 0 3.1719.5767 4.2914 1.7301 1.1195 1.1421 1.6792 2.6743 1.6792 4.5967zm0-.9838h7.1919c-.0566-.9951-.1753-1.6962-.3562-2.1033-.2827-.6333-.7068-1.1308-1.2722-1.4927-.554-.3618-1.1364-.5427-1.747-.5427-.9386 0-1.781.3675-2.5274 1.1025-.735.7237-1.1647 1.7358-1.2891 3.0362zm11.9412-4.8681h7.2427v.6276h-.3562c-.5088 0-.8933.1131-1.1534.3392-.2487.2149-.3731.4863-.3731.8142 0 .441.1866 1.0516.5597 1.8319l3.7825 7.8364 3.4772-8.5827c.1922-.4637.2884-.9216.2884-1.374 0-.2035-.0396-.3562-.1188-.4579-.0904-.1244-.2318-.2205-.424-.2884-.1923-.0791-.5315-.1187-1.0177-.1187v-.6276h5.0546v.6276c-.4184.0452-.7407.1357-.9668.2714-.2262.1357-.4749.3901-.7463.7633-.1018.1583-.294.5936-.5767 1.306l-6.3268 15.5032c-.6107 1.504-1.4135 2.6404-2.4086 3.4093-.9838.769-1.9337 1.1535-2.8496 1.1535-.6672 0-1.2156-.1923-1.6453-.5767-.4297-.3845-.6446-.8255-.6446-1.3231 0-.4749.1527-.8594.458-1.1534.3166-.2827.7463-.424 1.2891-.424.3732 0 .882.1244 1.5266.3731.4523.1696.735.2545.8481.2545.3392 0 .7067-.1753 1.1025-.5259.4071-.3505.8142-1.029 1.2212-2.0354l1.1026-2.6969-5.5805-11.7207c-.1696-.3505-.441-.7859-.8142-1.3061-.2827-.3957-.5145-.6615-.6954-.7972-.2601-.1809-.6785-.3392-1.2552-.4749z" fill="#fff"/><g fill="#4169e1"><path d="m97.7438 8.47384v7.95516h-.6276c-.2035-1.5266-.5711-2.7422-1.1025-3.6468-.5202-.9047-1.2665-1.6227-2.239-2.1542s-1.9789-.79721-3.0192-.79721c-1.176 0-2.1485.36181-2.9175 1.08561-.7689.7124-1.1534 1.5265-1.1534 2.4425 0 .7011.2431 1.34.7294 1.9167.7011.8481 2.369 1.9789 5.0037 3.3923 2.1486 1.1535 3.6129 2.0411 4.3932 2.6631.7915.6106 1.3965 1.3343 1.8149 2.1711.4297.8368.6446 1.7131.6446 2.6291 0 1.7414-.6785 3.2454-2.0355 4.5118-1.3456 1.2552-3.0814 1.8828-5.2073 1.8828-.6671 0-1.2947-.0509-1.8827-.1526-.3506-.0566-1.08-.2601-2.1881-.6107-1.0969-.3618-1.7923-.5427-2.0863-.5427-.2827 0-.5089.0848-.6785.2544-.1583.1696-.2771.5201-.3562 1.0516h-.6276v-7.8873h.6276c.294 1.651.6898 2.8892 1.1873 3.7147.4976.8142 1.2552 1.4926 2.2729 2.0354 1.029.5428 2.1542.8142 3.3754.8142 1.4135 0 2.5273-.3732 3.3415-1.1195.8255-.7463 1.2382-1.6283 1.2382-2.6461 0-.5653-.1583-1.1364-.4749-1.7131-.3053-.5767-.7859-1.1138-1.4418-1.6114-.441-.3392-1.6453-1.0573-3.6128-2.1541-1.9676-1.1082-3.3698-1.9902-4.2066-2.6461-.8255-.6559-1.4531-1.3796-1.8828-2.1711-.4297-.7916-.6445-1.6623-.6445-2.6122 0-1.6509.6332-3.0701 1.8997-4.2574 1.2665-1.19864 2.8779-1.79796 4.8342-1.79796 1.2212 0 2.516.29966 3.8842.89898.6333.2827 1.0799.42405 1.34.42405.294 0 .5315-.08481.7124-.25443.1923-.18093.3449-.53713.458-1.0686zm3.6132 7.98906h7.242v.6276h-.356c-.509 0-.893.1131-1.153.3392-.249.2149-.373.4863-.373.8142 0 .441.186 1.0516.559 1.8319l3.783 7.8364 3.477-8.5827c.192-.4637.288-.9216.288-1.374 0-.2035-.039-.3562-.118-.4579-.091-.1244-.232-.2205-.424-.2884-.193-.0791-.532-.1187-1.018-.1187v-.6276h5.055v.6276c-.419.0452-.741.1357-.967.2714s-.475.3901-.747.7633c-.101.1583-.294.5936-.576 1.306l-6.327 15.5032c-.611 1.504-1.414 2.6404-2.409 3.4093-.983.769-1.933 1.1535-2.849 1.1535-.667 0-1.216-.1923-1.646-.5767-.429-.3845-.644-.8255-.644-1.3231 0-.4749.153-.8594.458-1.1534.316-.2827.746-.424 1.289-.424.373 0 .882.1244 1.527.3731.452.1696.735.2545.848.2545.339 0 .706-.1753 1.102-.5259.407-.3505.814-1.029 1.221-2.0354l1.103-2.6969-5.581-11.7207c-.169-.3505-.441-.7859-.814-1.3061-.282-.3957-.514-.6615-.695-.7972-.26-.1809-.679-.3392-1.255-.4749zm28.292-.458v5.2921h-.56c-.429-1.6622-.983-2.793-1.662-3.3923-.667-.5994-1.521-.899-2.561-.899-.792 0-1.431.2092-1.917.6276s-.729.882-.729 1.3908c0 .6333.181 1.1761.543 1.6284.35.4636 1.063.9555 2.137 1.4757l2.476 1.2043c2.296 1.1195 3.443 2.5951 3.443 4.427 0 1.4135-.537 2.5556-1.611 3.4263-1.063.8594-2.256 1.2891-3.579 1.2891-.95 0-2.035-.1696-3.257-.5088-.373-.1131-.678-.1696-.915-.1696-.261 0-.464.147-.611.441h-.56v-5.5466h.56c.317 1.5831.921 2.7761 1.815 3.579.893.8028 1.894 1.2043 3.002 1.2043.78 0 1.414-.2262 1.9-.6785.497-.4636.746-1.0177.746-1.6623 0-.7802-.277-1.4361-.831-1.9675-.543-.5315-1.634-1.2043-3.274-2.0185-1.639-.8142-2.714-1.5492-3.222-2.2051-.509-.6445-.764-1.4587-.764-2.4425 0-1.2778.436-2.3464 1.306-3.2058.882-.8594 2.019-1.2891 3.41-1.2891.61 0 1.351.1301 2.222.3901.576.1697.961.2545 1.153.2545.181 0 .322-.0396.424-.1188.102-.0791.221-.2544.356-.5258zm8.006-4.6475v5.1055h3.63v1.1873h-3.63v10.0754c0 1.0064.141 1.6849.424 2.0354.294.3506.667.5258 1.12.5258.373 0 .735-.113 1.085-.3392.351-.2375.622-.5824.814-1.0347h.662c-.396 1.1082-.956 1.945-1.679 2.5104-.724.5541-1.47.8311-2.239.8311-.52 0-1.029-.1413-1.527-.424-.497-.294-.865-.7068-1.102-1.2382-.238-.5428-.357-1.374-.357-2.4934v-10.4486h-2.459v-.5597c.622-.2488 1.255-.6672 1.9-1.2552.656-.5993 1.238-1.3061 1.747-2.1202.26-.4297.622-1.2156 1.085-2.3577zm7.769 10.9574c-.012 2.3068.548 4.116 1.679 5.4278 1.131 1.3117 2.459 1.9675 3.986 1.9675 1.018 0 1.9-.277 2.646-.8311.758-.5654 1.391-1.5266 1.9-2.8835l.526.3392c-.238 1.5492-.928 2.9627-2.07 4.2405-1.142 1.2665-2.572 1.8997-4.291 1.8997-1.866 0-3.466-.7237-4.8-2.1711-1.323-1.4587-1.985-3.415-1.985-5.8688 0-2.6574.679-4.7267 2.036-6.2081 1.368-1.4926 3.081-2.2389 5.139-2.2389 1.741 0 3.172.5767 4.291 1.7301 1.12 1.1421 1.68 2.6743 1.68 4.5967zm0-.9838h7.192c-.057-.9951-.176-1.6962-.357-2.1033-.282-.6333-.706-1.1308-1.272-1.4927-.554-.3618-1.136-.5427-1.747-.5427-.938 0-1.781.3675-2.527 1.1025-.735.7237-1.165 1.7358-1.289 3.0362zm17.437-2.0185c1.13-1.1308 1.797-1.781 2.001-1.9506.509-.4297 1.057-.7633 1.645-1.0008.588-.2374 1.171-.3562 1.747-.3562.973 0 1.81.2827 2.511.8481s1.17 1.3852 1.408 2.4595c1.164-1.357 2.148-2.2446 2.951-2.663.803-.4297 1.628-.6446 2.476-.6446.826 0 1.555.2149 2.188.6446.645.4184 1.154 1.1082 1.527 2.0693.249.6559.373 1.6849.373 3.0871v6.683c0 .9725.074 1.6396.221 2.0015.113.2488.322.4636.627.6445.306.1697.803.2545 1.493.2545v.6106h-7.667v-.6106h.322c.668 0 1.188-.1301 1.561-.3902.26-.1809.447-.4692.56-.865.045-.1922.068-.7407.068-1.6453v-6.683c0-1.2665-.153-2.1598-.458-2.68-.441-.7237-1.148-1.0855-2.121-1.0855-.599 0-1.204.1526-1.815.4579-.599.294-1.328.8481-2.188 1.6623l-.034.1866.034.7293v7.4124c0 1.0629.057 1.7244.17 1.9845.124.2601.35.4806.678.6615.328.1697.888.2545 1.68.2545v.6106h-7.854v-.6106c.86 0 1.448-.1018 1.764-.3053.328-.2036.554-.5089.679-.916.056-.1922.085-.752.085-1.6792v-6.683c0-1.2665-.187-2.1768-.56-2.7309-.498-.7237-1.193-1.0855-2.086-1.0855-.611 0-1.216.1639-1.815.4919-.939.4975-1.663 1.0573-2.171 1.6792v8.3283c0 1.0177.067 1.6792.203 1.9845.147.3053.356.5372.628.6955.282.147.848.2205 1.696.2205v.6106h-7.684v-.6106c.712 0 1.21-.0735 1.493-.2205.282-.1583.497-.4015.644-.7294.147-.3392.221-.9894.221-1.9506v-5.9367c0-1.7075-.051-2.81-.153-3.3076-.079-.3731-.203-.6275-.373-.7632-.17-.147-.401-.2205-.695-.2205-.317 0-.696.0848-1.137.2544l-.254-.6106 4.681-1.8998h.73z"/><path d="m92.5625 39.0375.0885 1.8756h-.2242c-.0432-.3303-.1022-.5662-.1769-.7078-.1219-.228-.2851-.3951-.4895-.5013-.2005-.1101-.4659-.1651-.7962-.1651h-1.1265v6.1101c0 .4915.0531.7982.1592.9201.1494.1651.3795.2477.6901.2477h.2772v.2182h-3.3913v-.2182h.2831c.3382 0 .578-.1022.7195-.3067.0865-.1258.1298-.4128.1298-.8611v-6.1101h-.9613c-.3736 0-.639.0275-.7963.0825-.2044.0747-.3794.2182-.5249.4306-.1454.2123-.2319.4993-.2595.8611h-.2241l.0944-1.8756zm.8316 4.6298c-.0039.8021.1907 1.4313.5839 1.8873.3932.4561.8552.6842 1.386.6842.3538 0 .6605-.0963.92-.289.2635-.1966.4836-.5308.6606-1.0026l.1828.1179c-.0826.5387-.3224 1.0302-.7195 1.4745-.3971.4404-.8945.6605-1.4922.6605-.6487 0-1.2051-.2516-1.6691-.7549-.46-.5072-.69-1.1874-.69-2.0406 0-.924.2359-1.6436.7077-2.1586.4758-.519 1.0715-.7786 1.7871-.7786.6055 0 1.1029.2006 1.4921.6016.3893.3971.5839.9299.5839 1.5983zm0-.342h2.5007c-.0197-.346-.061-.5898-.1239-.7314-.0983-.2202-.2457-.3932-.4423-.519-.1927-.1258-.3952-.1887-.6075-.1887-.3264 0-.6193.1278-.8788.3834-.2556.2516-.405.6035-.4482 1.0557zm9.0469 1.6573c-.145.7116-.43 1.2601-.855 1.6455-.424.3814-.894.572-1.409.572-.6138 0-1.1485-.2575-1.6046-.7726-.4561-.515-.6842-1.211-.6842-2.0878 0-.8493.2517-1.5393.755-2.0701.5072-.5309 1.1147-.7963 1.8228-.7963.53 0 .967.1416 1.309.4247.342.2792.513.5701.513.8729 0 .1494-.049.2713-.147.3656-.095.0905-.228.1357-.401.1357-.232 0-.407-.0747-.525-.2241-.067-.0826-.112-.2399-.136-.4719-.02-.2319-.098-.4089-.236-.5308-.138-.1179-.328-.1769-.572-.1769-.3932 0-.7097.1455-.9496.4364-.3185.3854-.4777.8945-.4777 1.5276 0 .6448.1573 1.2149.4718 1.7104.3185.4914.7475.7372 1.2855.7372.386 0 .732-.1317 1.038-.3952.217-.1808.427-.5092.631-.9849zm2.365-6.3343v3.9515c.437-.4797.783-.7863 1.038-.92.256-.1376.512-.2065.767-.2065.307 0 .57.0846.79.2537.221.169.384.4344.49.7962.075.2516.112.7116.112 1.3801v1.9109c0 .342.028.576.083.7018.039.0944.106.1691.2.2241.094.0551.267.0826.519.0826v.2123h-2.654v-.2123h.124c.252 0 .427-.0374.525-.1121.098-.0786.167-.1926.206-.342.012-.063.018-.2478.018-.5544v-1.9109c0-.5898-.031-.9771-.094-1.1619-.059-.1848-.156-.3224-.289-.4129-.134-.0943-.295-.1415-.484-.1415-.193 0-.393.0511-.602.1533-.208.1023-.458.3087-.749.6193v2.8546c0 .3696.02.5996.059.69.044.0904.12.1671.23.23.114.059.309.0885.584.0885v.2123h-2.677v-.2123c.24 0 .428-.0374.566-.1121.078-.0393.141-.114.189-.2241.047-.1101.07-.3342.07-.6723v-4.8894c0-.6173-.015-.9967-.047-1.1382-.027-.1416-.073-.2379-.135-.289-.059-.0511-.14-.0767-.242-.0767-.083 0-.217.0315-.401.0944l-.083-.2065 1.616-.6605zm6.028 3.9692c.633-.7628 1.237-1.1442 1.811-1.1442.295 0 .548.0748.76.2242.213.1454.382.3873.508.7254.086.2359.129.5976.129 1.0852v2.3061c0 .342.028.574.083.6959.043.0983.112.175.206.23.099.0551.278.0826.537.0826v.2123h-2.672v-.2123h.112c.252 0 .427-.0374.525-.1121.103-.0786.173-.1926.213-.342.015-.059.023-.2438.023-.5544v-2.2117c0-.4915-.065-.8474-.194-1.0675-.126-.2242-.34-.3362-.643-.3362-.468 0-.934.2556-1.398.7667v2.8487c0 .3656.022.5917.065.6782.055.114.13.1986.224.2536.098.0511.295.0767.59.0767v.2123h-2.672v-.2123h.118c.275 0 .46-.0688.554-.2064.099-.1416.148-.409.148-.8021v-2.0053c0-.6488-.016-1.0439-.047-1.1855-.028-.1415-.073-.2379-.136-.289-.059-.0511-.14-.0766-.242-.0766-.11 0-.242.0294-.395.0884l-.088-.2123 1.627-.6606h.254zm7.107-1.1442c.818 0 1.474.3107 1.97.9319.42.5308.631 1.1403.631 1.8283 0 .4837-.116.9732-.348 1.4686s-.553.8689-.961 1.1206c-.405.2516-.858.3774-1.357.3774-.814 0-1.461-.3243-1.94-.9731-.405-.5465-.608-1.1599-.608-1.8401 0-.4954.122-.9869.366-1.4745.248-.4915.572-.8532.973-1.0852.401-.2359.826-.3539 1.274-.3539zm-.183.3834c-.208 0-.419.0629-.631.1887-.208.1219-.377.3382-.507.6488s-.195.7097-.195 1.1973c0 .7863.155 1.4646.466 2.0347.315.5701.727.8552 1.239.8552.381 0 .696-.1573.943-.4718.248-.3146.372-.8552.372-1.6219 0-.9594-.207-1.7143-.619-2.2648-.28-.3775-.635-.5662-1.068-.5662zm5.438-3.2084v7.1659c0 .3381.023.5622.071.6723.051.1101.127.1946.23.2536.102.0551.293.0826.572.0826v.2123h-2.648v-.2123c.247 0 .416-.0256.507-.0767.09-.0511.161-.1356.212-.2536s.077-.344.077-.6782v-4.907c0-.6095-.014-.983-.041-1.1206-.028-.1416-.073-.2379-.136-.289-.059-.0511-.136-.0767-.23-.0767-.102 0-.232.0315-.389.0944l-.101-.2065 1.61-.6605zm4.146 2.825c.818 0 1.475.3107 1.97.9319.421.5308.631 1.1403.631 1.8283 0 .4837-.116.9732-.348 1.4686s-.552.8689-.961 1.1206c-.405.2516-.857.3774-1.357.3774-.814 0-1.461-.3243-1.94-.9731-.405-.5465-.608-1.1599-.608-1.8401 0-.4954.122-.9869.366-1.4745.248-.4915.572-.8532.973-1.0852.401-.2359.826-.3539 1.274-.3539zm-.183.3834c-.208 0-.419.0629-.631.1887-.208.1219-.377.3382-.507.6488s-.195.7097-.195 1.1973c0 .7863.156 1.4646.466 2.0347.315.5701.728.8552 1.239.8552.381 0 .696-.1573.943-.4718.248-.3146.372-.8552.372-1.6219 0-.9594-.206-1.7143-.619-2.2648-.279-.3775-.635-.5662-1.068-.5662zm5.025 3.2084c-.33-.1612-.584-.3853-.761-.6723-.177-.291-.265-.6114-.265-.9614 0-.5347.2-.9947.602-1.3801.405-.3853.922-.578 1.551-.578.515 0 .961.1259 1.338.3775h1.145c.169 0 .267.0059.295.0177.027.0079.047.0236.059.0472.023.0354.035.0983.035.1887 0 .1022-.01.173-.03.2123-.011.0197-.033.0354-.064.0472-.028.0118-.126.0177-.295.0177h-.702c.22.2831.33.6448.33 1.0852 0 .5033-.193.9338-.578 1.2916s-.902.5367-1.551.5367c-.267 0-.541-.0393-.82-.1179-.173.1494-.291.2811-.354.3951-.059.1101-.088.2045-.088.2831 0 .0669.031.1318.094.1947.067.0629.195.1081.384.1356.11.0157.385.0295.825.0413.81.0197 1.335.0472 1.575.0826.366.0511.657.1867.873.4069.22.2202.33.4915.33.8139 0 .4443-.208.8611-.625 1.2504-.613.574-1.414.8611-2.4.8611-.759 0-1.4-.1711-1.923-.5132-.295-.1966-.442-.401-.442-.6133 0-.0944.021-.1888.064-.2831.067-.1455.205-.348.413-.6075.028-.0354.228-.2477.602-.637-.205-.1219-.35-.23-.437-.3244-.082-.0983-.123-.2083-.123-.3302 0-.1377.055-.2989.165-.4837.114-.1848.373-.4462.778-.7844zm1.026-3.3087c-.291 0-.534.116-.731.348s-.295.5878-.295 1.0675c0 .6213.134 1.1029.401 1.445.205.2595.464.3893.779.3893.299 0 .544-.1121.737-.3362s.289-.576.289-1.0557c0-.6252-.136-1.1147-.407-1.4686-.201-.2595-.458-.3893-.773-.3893zm-1.085 5.2786c-.185.2005-.324.3873-.419.5603-.094.173-.141.3322-.141.4777 0 .1888.114.3539.342.4954.393.2438.961.3657 1.704.3657.708 0 1.229-.1258 1.563-.3775.339-.2477.508-.5131.508-.7962 0-.2044-.101-.3499-.301-.4364-.205-.0865-.61-.1376-1.215-.1533-.885-.0236-1.565-.0689-2.041-.1357zm4.347-5.4024h2.518v.2182h-.124c-.177 0-.31.0393-.401.118-.086.0747-.129.169-.129.2831 0 .1533.064.3656.194.6369l1.315 2.7248 1.21-2.9843c.066-.1612.1-.3204.1-.4777 0-.0708-.014-.1239-.042-.1592-.031-.0433-.08-.0767-.147-.1003-.067-.0275-.185-.0413-.354-.0413v-.2182h1.758v.2182c-.146.0157-.258.0472-.336.0944-.079.0472-.166.1356-.26.2654-.035.055-.102.2064-.2.4541l-2.2 5.3906c-.213.523-.492.9181-.838 1.1855-.342.2674-.672.4011-.991.4011-.232 0-.422-.0669-.572-.2006-.149-.1337-.224-.287-.224-.46 0-.1651.053-.2988.159-.4011.11-.0983.26-.1474.449-.1474.129 0 .306.0432.53.1297.158.059.256.0885.295.0885.118 0 .246-.0609.384-.1828.141-.1219.283-.3578.424-.7078l.384-.9377-1.941-4.0754c-.059-.1219-.153-.2733-.283-.4542-.098-.1376-.179-.23-.242-.2772-.09-.0629-.236-.1179-.436-.1651zm15.912 3.1907.195.0413-.684 2.1704h-6.193v-.2182h.301c.338 0 .58-.1101.725-.3303.083-.1258.124-.4168.124-.8729v-5.1606c0-.4993-.055-.8119-.165-.9377-.153-.173-.381-.2595-.684-.2595h-.301v-.2183h3.621v.2183c-.424-.004-.723.0353-.896.1179-.169.0826-.285.1868-.348.3126s-.095.4266-.095.9024v5.0249c0 .3264.032.5505.095.6724.047.0826.12.1435.218.1828s.405.059.92.059h.584c.613 0 1.044-.0452 1.292-.1357.247-.0904.473-.2496.678-.4777.204-.232.409-.5957.613-1.0911zm2.212-6.175c.165 0 .305.059.419.1769.118.114.177.2536.177.4188 0 .1651-.059.3066-.177.4246-.114.118-.254.1769-.419.1769s-.307-.0589-.425-.1769-.177-.2595-.177-.4246c0-.1652.057-.3048.171-.4188.118-.1179.262-.1769.431-.1769zm.489 2.825v4.3409c0 .3381.024.5642.071.6782.051.1101.124.1927.218.2477.099.0551.276.0826.531.0826v.2123h-2.624v-.2123c.263 0 .44-.0256.531-.0767.09-.0511.161-.1356.212-.2536.055-.118.082-.344.082-.6782v-2.082c0-.5858-.017-.9653-.053-1.1383-.027-.1258-.07-.2123-.129-.2595-.059-.0511-.14-.0766-.242-.0766-.11 0-.244.0294-.401.0884l-.083-.2123 1.628-.6606zm3.103 1.1501c.393-.3932.625-.6192.696-.6782.177-.1494.367-.2654.572-.348.204-.0826.407-.1239.607-.1239.338 0 .629.0983.873.2949s.407.4817.49.8552c.405-.4718.747-.7805 1.026-.9259.279-.1494.566-.2242.861-.2242.287 0 .541.0748.761.2242.224.1454.401.3853.531.7195.086.228.129.5859.129 1.0734v2.3238c0 .3381.026.5701.077.6959.039.0865.112.1612.218.2241.106.059.279.0885.519.0885v.2123h-2.666v-.2123h.112c.232 0 .413-.0452.543-.1357.091-.0629.155-.1631.195-.3008.015-.0668.023-.2575.023-.572v-2.3238c0-.4404-.053-.751-.159-.9319-.153-.2516-.399-.3774-.737-.3774-.209 0-.419.0531-.631.1592-.209.1023-.462.2949-.761.578l-.012.0649.012.2536v2.5774c0 .3696.02.5996.059.69.043.0904.122.1671.236.23.114.059.308.0885.584.0885v.2123h-2.731v-.2123c.299 0 .503-.0354.613-.1062.114-.0707.193-.1769.236-.3185.02-.0668.03-.2614.03-.5838v-2.3238c0-.4404-.065-.7569-.195-.9495-.173-.2517-.415-.3775-.725-.3775-.213 0-.423.057-.631.171-.327.173-.578.3677-.755.5839v2.8959c0 .3538.023.5838.071.69.051.1062.123.1868.218.2418.098.0511.295.0767.59.0767v.2123h-2.672v-.2123c.248 0 .421-.0256.519-.0767.098-.055.173-.1396.224-.2536.051-.118.077-.344.077-.6782v-2.0643c0-.5937-.018-.9771-.053-1.1501-.028-.1297-.071-.2182-.13-.2654-.059-.0511-.14-.0766-.242-.0766-.11 0-.242.0294-.395.0884l-.089-.2123 1.628-.6606h.254zm9.171-3.9751c.165 0 .305.059.419.1769.118.114.177.2536.177.4188 0 .1651-.059.3066-.177.4246-.114.118-.254.1769-.419.1769s-.307-.0589-.425-.1769-.177-.2595-.177-.4246c0-.1652.057-.3048.171-.4188.118-.1179.262-.1769.431-.1769zm.489 2.825v4.3409c0 .3381.024.5642.071.6782.051.1101.124.1927.218.2477.099.0551.276.0826.531.0826v.2123h-2.624v-.2123c.263 0 .44-.0256.53-.0767.091-.0511.162-.1356.213-.2536.055-.118.082-.344.082-.6782v-2.082c0-.5858-.017-.9653-.053-1.1383-.027-.1258-.07-.2123-.129-.2595-.059-.0511-.14-.0766-.242-.0766-.11 0-.244.0294-.401.0884l-.083-.2123 1.628-.6606zm3.067-1.616v1.7753h1.262v.4128h-1.262v3.5034c0 .3499.049.5858.148.7077.102.1219.232.1828.389.1828.13 0 .256-.0393.377-.1179.122-.0826.217-.2025.284-.3598h.23c-.138.3853-.333.6763-.584.8729-.252.1926-.511.289-.779.289-.181 0-.358-.0492-.531-.1475-.173-.1022-.3-.2457-.383-.4305-.083-.1887-.124-.4777-.124-.867v-3.6331h-.855v-.1946c.216-.0865.436-.232.661-.4364.228-.2084.43-.4542.607-.7373.09-.1494.216-.4226.377-.8198zm2.701 3.81c-.003.8021.191 1.4313.584 1.8873.394.4561.856.6842 1.386.6842.354 0 .661-.0963.92-.289.264-.1966.484-.5308.661-1.0026l.183.1179c-.083.5387-.323 1.0302-.72 1.4745-.397.4404-.894.6605-1.492.6605-.649 0-1.205-.2516-1.669-.7549-.46-.5072-.69-1.1874-.69-2.0406 0-.924.236-1.6436.708-2.1586.475-.519 1.071-.7786 1.787-.7786.605 0 1.103.2006 1.492.6016.389.3971.584.9299.584 1.5983zm0-.342h2.501c-.019-.346-.061-.5898-.124-.7314-.098-.2202-.245-.3932-.442-.519-.193-.1258-.395-.1887-.608-.1887-.326 0-.619.1278-.878.3834-.256.2516-.405.6035-.449 1.0557zm8.275 3.1022c-.263.2753-.521.4738-.772.5957-.252.118-.523.1769-.814.1769-.59 0-1.105-.2457-1.546-.7372-.44-.4954-.66-1.1304-.66-1.905s.244-1.4823.731-2.1232c.488-.6448 1.115-.9673 1.882-.9673.475 0 .869.1514 1.179.4542v-.9968c0-.6173-.016-.9967-.047-1.1382-.028-.1416-.073-.2379-.136-.289s-.141-.0767-.236-.0767c-.102 0-.237.0315-.407.0944l-.076-.2065 1.61-.6605h.265v6.2458c0 .633.014 1.0203.042 1.1619.031.1376.078.2339.141.289.067.055.144.0825.23.0825.106 0 .248-.0334.425-.1002l.065.2064-1.605.6664h-.271zm0-.4128v-2.7838c-.023-.2674-.094-.5111-.212-.7313s-.275-.3854-.472-.4954c-.193-.1141-.381-.1711-.566-.1711-.346 0-.655.1553-.926.4659-.358.409-.537 1.0066-.537 1.793 0 .7942.173 1.4037.519 1.8283.346.4207.731.6311 1.156.6311.358 0 .704-.1789 1.038-.5367z"/></g></svg>