<svg fill="none" height="32" viewBox="0 0 66 32" width="66" xmlns="http://www.w3.org/2000/svg"><path d="m25.3911 27.6042c-8.5223-1.9796-31.50544-10.9716-23.85559-21.43985 14.94319 12.87315 34.20979 19.60485 53.91839 18.83895l8.1867-.3182v1.5099c-1.6105 4.8315-12.8035 7.6901-38.2495 1.4092z" fill="#4169e1"/><path d="m63.4397 22.37 2.1138-5.2342-2.1138-.5032c-.7987-.599-1.5471-1.2937-2.3606-1.8725-3.4263-2.4384-13.6641-8.25975-22.4009-10.50824-11.7895-3.03414-32.53792-6.44145-37.29814.64405-1.648036 2.45307-.27988 5.70659 1.9072 7.69409 10.58334 9.6176 42.29094 20.6001 60.15244 11.8938l-5.3348-3.8249c-7.2473 4.1269-23.9563 2.8181-39.4573-4.9323-5.6368-2.8183-14.29328-11.27343 1.9124-12.07874 10.6696-1.10718 29.4924 4.6302 37.5449 12.07874h-2.2145z" fill="#000080"/></svg>