<svg fill="none" height="27" viewBox="0 0 26 27" width="26" xmlns="http://www.w3.org/2000/svg"><path d="m3.82099 1.23436c-.21888.12544-.3959.31265-.5089.5382s-.15697.47942-.1264.72983l1.93796 20.79711c.12388 1.0098 1.31805 1.4804 2.09723.8264l3.64582-3.0598 1.8339 3.1765c1.0546 1.8264 3.1726 2.0185 4.9987.9639 1.8269-1.0547 2.7195-2.9847 1.6649-4.8111l-1.8275-3.1652 4.4023-1.6017c.9558-.3481 1.1454-1.6171.3329-2.2293l-17.04207-12.07713c-.2005-.15084-.44084-.23955-.69126-.25514s-.49992.04262-.71758.16743zm2.27702 3.95183 12.74319 8.84011-5.056 1.8397.0236.0367 3.3342 5.7751c.3663.6343-.0913.9413-.7258 1.3075-.6345.3663-1.129.6092-1.4953-.0251l-3.3342-5.7751-.0264-.0508-4.17909 3.5079z" fill="#5b66fe"/></svg>