<svg fill="none" height="1068" viewBox="0 0 1440 1068" width="1440" xmlns="http://www.w3.org/2000/svg" xmlns:xlink="http://www.w3.org/1999/xlink"><radialGradient id="a" cx="0" cy="0" gradientTransform="matrix(0 1532.88 -2554.3 0 647.827 -599.439)" gradientUnits="userSpaceOnUse" r="1"><stop offset="0" stop-color="#1e245c"/><stop offset="1" stop-color="#1e245c" stop-opacity=".67"/></radialGradient><path clip-rule="evenodd" d="m-64.1902.622438h-177.1878v177.187562h158.8311l18.3567-18.357zm18.8462 177.187562-18.1199-18.12v-159.067562h177.1869v177.187562zm-18.1199 18.576 17.85-17.85h159.3369v177.187h-177.1869zm-18.813-17.85 18.0867 18.087v159.1h-177.1878v-177.187zm-159.7231-178.536v177.914.518 177.395.519 177.394.519 177.395.519 177.395.518 177.914h177.9137.5185 177.3948.519 177.394.519 177.395.519 177.394.519 177.395.519 177.39.52 177.4.52 177.39.52 177.91v-177.914-177.913-.519-177.914-177.394-177.914-.518-177.914h-177.91-.52-177.39-.52-177.4-.52-177.39-.519-177.395-.519-177.394-.519-177.395-.519-177.394-.519-177.3948-.5185zm356.449.622438h177.188v177.187562h-177.188zm355.101 0h-177.187v177.187562h177.187zm.727 0h177.187v177.187562h-177.187zm355.1 0h-177.187v177.187562h177.187zm.726 0h177.187v177.187562h-177.187zm355.097 0h-177.18v177.187562h177.18zm.73 0h177.19v177.187562h-177.19zm355.1 0h-177.19v177.187562h177.19zm-1422.581 177.913562h177.188v177.187h-177.188zm355.101 0h-177.187v177.187h159.365l17.822-17.822zm18.264 177.187-17.537-17.537v-159.65h177.187v177.187zm-17.537 19.111 18.323-18.324-.06-.061h158.924v177.188h-177.187zm-19.275-18.385-.061.061 18.609 18.609v158.518h-177.187v-177.188zm374.375-177.913h-177.187v177.187h177.187zm.726 0h177.187v177.187h-177.187zm355.097 0h-177.18v177.187h177.18zm.73 0h177.19v128.03l-.3.301-48.86 48.856h-128.03zm127.3 177.913h-127.3v159.732l.6-.595 18.05 18.051h158.54v-127.183l-.3-.301-49.17-49.162-.48-.481zm49.89 49.044-48.98-48.983.06-.061h30.33l-.06.061 18.65 18.65zm.72.595v127.549h177.19v-177.188h-127.67l.06.061-.48.481zm48.56-49.639.06.061-48.62 48.616v-30.332l18.29-18.284-.06-.061zm.24-.726h128.39v-177.187h-177.19v128.397zm-48.8-47.829 47.83 47.829h-30.33l-17.5-17.496zm-.72-.367-48.2 48.196h30.33l17.87-17.862zm-177.19 245.122.6.596 18.83-18.83-.06-.052h157.82v177.187h-177.19zm-18.18-18.286-.05.052 17.5 17.509v159.626h-177.18v-177.187zm17.45-17.456-16.73 16.73h-160.45v-177.188h177.18zm-1422.578-160.458h177.1878v177.188h-177.1878zm355.101 0h-177.1869v177.188h177.1869zm.726 0h177.188v177.188h-177.188zm710.929 0h-177.188v177.188h177.188zm.725 0h177.187v177.188h-177.187zm-1067.481 177.914h177.1878v177.187h-177.1878zm355.101 0h-177.1869v177.187h128.2295l-.2304-.23.4807-.481 48.7071-48.708zm0 128.73-48.2264 48.227.2305.23h30.3331l-.2305-.23 17.8933-17.894zm.726 29.607v-30.333l.21-.21 49.163 49.163-.231.23h-30.332l.23-.23-18.83-18.83zm0 37.239.21.21 17.873-17.872h30.333l-48.206 48.205-.21-.21zm-17.6625-17.662 16.9365 16.937v30.333l-47.2696-47.27zm-31.2946 0h-128.9558v177.187h177.1869v-128.956zm48.9571 48.957v128.23h177.188v-177.187h-127.811l-48.686 48.686-.481.481zm50.104-49.684h127.084v-177.187h-177.188v127.043l.21-.21.481.48 49.163 49.163.48.481zm304.997-177.187h-177.187v177.187h177.187zm.727 0h177.187v177.187h-177.187zm355.1 0h-177.187v177.187h177.187zm.726 0h177.187v177.187h-177.187zm710.927 0h-177.19v177.187h177.19zm-1778.408 177.914h177.1878v177.187h-177.1878zm710.928 0h-177.187v177.187h177.187zm.727 0h177.187v177.187h-177.187zm355.1 0h-177.187v177.187h177.187zm.726 0h177.187v177.187h-177.187zm355.097 0h-177.18v177.187h177.18zm.73 0h177.19v177.187h-177.19zm355.1 0h-177.19v177.187h177.19zm-1778.408 177.913h177.1878v177.19h-177.1878zm355.101 0h-177.1869v177.19h177.1869zm.726 0h177.188v177.19h-177.188zm355.101 0h-177.187v177.19h177.187zm.727 0h177.187v177.19h-177.187zm355.1 0h-177.187v177.19h177.187zm.726 0h177.187v177.19h-177.187zm355.097 0h-177.18v177.19h177.18zm.73 0h177.19v177.19h-177.19zm355.1 0h-177.19v177.19h177.19z" fill="url(#a)" fill-opacity=".6" fill-rule="evenodd"/></svg>